<svg data-name="Layer 1" viewBox="0 0 150 150" xmlns="http://www.w3.org/2000/svg"><defs><clipPath id="a"><circle cx="75" cy="75" r="65" fill="#ef5552" class="fill-13818d"></circle></clipPath></defs><circle cx="75" cy="75" r="65" fill="#ef5552" class="fill-13818d"></circle><g clip-path="url(#a)"><path d="M131.73 83.81A21.09 21.09 0 0 1 112.81 72a21.09 21.09 0 0 1-37.73.22 21.09 21.09 0 0 1-37.28.65 21.1 21.1 0 0 1-39.3-6.8h-.3v40.6h154.64V66.1h-.3a21.11 21.11 0 0 1-20.81 17.71Z" fill="#e53734" class="fill-44c2c7"></path><path d="M107.53 70.3a.86.86 0 0 0-.49-.47L75.52 57.95a.88.88 0 0 0-.61 0L43.15 69.83a.87.87 0 0 0-.47 1.17c.13.26 13.12 26.38 17.7 38.91a.87.87 0 0 0 .82.57H91a.87.87 0 0 0 .82-.57c3.67-10.07 15.6-38.67 15.72-39a.87.87 0 0 0-.01-.61Z" fill="#ffffff" class="fill-ffffff"></path><path d="m74.13 97.55 1.01-24.27 1 24.27h-2.01z" fill="#e57171" class="fill-30a7ad"></path><path d="M131.73 102.36a21.09 21.09 0 0 1-18.92-11.78 21.08 21.08 0 0 1-37.73.22 21.09 21.09 0 0 1-37.28.65 21.1 21.1 0 0 1-39.3-6.8h-.3v40.6h154.64v-40.6h-.3a21.11 21.11 0 0 1-20.81 17.71Z" fill="#e57171" class="fill-30a7ad"></path><path d="M131.73 124.08a21.08 21.08 0 0 1-18.92-11.78 21.08 21.08 0 0 1-37.73.22 21.09 21.09 0 0 1-37.28.65 21.1 21.1 0 0 1-39.3-6.8h-.3V147h154.64v-40.6h-.3a21.11 21.11 0 0 1-20.81 17.68Z" fill="#ef5552" class="fill-13818d"></path><path d="M96.68 44.6h-5.2v-1.8a.65.65 0 0 0-.65-.65h-14V38a.65.65 0 0 0-.65-.65h-.8v-5.18l9.14-3.32-9.89-2.26v10.73H74a.65.65 0 0 0-.65.65v4.17h-14a.65.65 0 0 0-.65.65v1.8h-5.2a.65.65 0 0 0-.65.65v9.29a.65.65 0 0 0 .65.65h5.2v6.38l16.2-6.06a.88.88 0 0 1 .61 0l16 6v-6.31h5.21a.65.65 0 0 0 .65-.65v-9.29a.65.65 0 0 0-.69-.65Zm-25.46 7.77a.65.65 0 0 1-.65.65H62a.65.65 0 0 1-.65-.65v-4.86a.65.65 0 0 1 .65-.65h8.57a.65.65 0 0 1 .65.65v4.85Zm17.4 0A.65.65 0 0 1 88 53h-8.6a.65.65 0 0 1-.65-.65v-4.84a.65.65 0 0 1 .65-.65H88a.65.65 0 0 1 .65.65v4.85Z" fill="#ffffff" class="fill-ffffff"></path></g></svg>